# xmcd
#
# Track frame offsets: 
#        150
#        26787
#        38050
#        52790
#        70472
#        109024
#        121947
#        134584
#        146049
#        160748
#        173755
#        189383
#        199313
#        214011
#        222760
#        233644
#        246157
#        259094
#
# Disc length: 3624 seconds
#
# Revision: 0
# Processed by: cddbd v1.5.1PL2 Copyright (c) Steve Scherf et al.
# Submitted via: ExactAudioCopy v0.95b3
#
DISCID=070e2612
DTITLE=AAVV - Let's blues - cd 1
DYEAR=1900
DGENRE=Blues
TTITLE0=Takin' care of business
TTITLE1=Mojo Hands
TTITLE2=Sally mae
TTITLE3=Monday morning blues
TTITLE4=Why I sing the blues
TTITLE5=I Ain't superstitious
TTITLE6=Long Tall mama
TTITLE7=I'd rather go blind
TTITLE8=Stagger lee
TTITLE9=Dust my broom
TTITLE10=Lodine in my coffee
TTITLE11=Messin' with the kind
TTITLE12=How long blues
TTITLE13=Baby please don't go
TTITLE14=Hush Hush
TTITLE15=Road runner
TTITLE16=Route 66
TTITLE17=It's all over now
EXTD=
EXTT0=
EXTT1=
EXTT2=
EXTT3=
EXTT4=
EXTT5=
EXTT6=
EXTT7=
EXTT8=
EXTT9=
EXTT10=
EXTT11=
EXTT12=
EXTT13=
EXTT14=
EXTT15=
EXTT16=
EXTT17=
PLAYORDER=
